<svg id="visual" viewBox="0 0 900 600" width="900" height="600" xmlns="http://www.w3.org/2000/svg" xmlns:xlink="http://www.w3.org/1999/xlink" version="1.1"><rect x="0" y="0" width="900" height="600" fill="#dacaca"></rect><path d="M0 210L21.5 196.5C43 183 86 156 128.8 150.5C171.7 145 214.3 161 257.2 152.2C300 143.3 343 109.7 385.8 96C428.7 82.3 471.3 88.7 514.2 88.7C557 88.7 600 82.3 642.8 95.2C685.7 108 728.3 140 771.2 156.5C814 173 857 174 878.5 174.5L900 175L900 0L878.5 0C857 0 814 0 771.2 0C728.3 0 685.7 0 642.8 0C600 0 557 0 514.2 0C471.3 0 428.7 0 385.8 0C343 0 300 0 257.2 0C214.3 0 171.7 0 128.8 0C86 0 43 0 21.5 0L0 0Z" fill="#b35100" stroke-linecap="round" stroke-linejoin="miter"></path></svg>